<svg width="56" height="28" viewBox="0 0 56 28" fill="none" xmlns="http://www.w3.org/2000/svg">
<path d="M20.6016 11.1875C20.5312 11.5391 20.418 11.9062 20.2617 12.2891C20.1133 12.6641 19.918 13.0078 19.6758 13.3203C19.4414 13.6328 19.1602 13.8867 18.832 14.082C18.5039 14.2852 18.1289 14.3867 17.707 14.3867C17.3945 14.3867 17.1133 14.3242 16.8633 14.1992C16.6133 14.0742 16.3867 13.9062 16.1836 13.6953C15.9805 13.4844 15.8047 13.2422 15.6562 12.9688C15.5078 12.6953 15.3828 12.4141 15.2812 12.125C15.1875 11.8281 15.1172 11.5352 15.0703 11.2461C15.0234 10.957 15 10.6875 15 10.4375C15 10.0859 15.0312 9.71094 15.0938 9.3125C15.1641 8.90625 15.2656 8.50781 15.3984 8.11719C15.5312 7.71875 15.6992 7.33984 15.9023 6.98047C16.1055 6.61328 16.3438 6.29297 16.6172 6.01953C16.8984 5.73828 17.2109 5.51562 17.5547 5.35156C17.9062 5.17969 18.2969 5.09375 18.7266 5.09375C19 5.09375 19.2539 5.14844 19.4883 5.25781C19.7227 5.35938 19.9258 5.5 20.0977 5.67969C20.2695 5.85156 20.4023 6.05859 20.4961 6.30078C20.5977 6.54297 20.6484 6.79688 20.6484 7.0625V7.16797C20.6484 7.30859 20.6406 7.48438 20.625 7.69531C20.6172 7.89844 20.582 8.09375 20.5195 8.28125C20.457 8.46875 20.3633 8.63281 20.2383 8.77344C20.1133 8.90625 19.9375 8.97266 19.7109 8.97266C19.4375 8.97266 19.2305 8.91016 19.0898 8.78516C18.9492 8.66016 18.8789 8.45312 18.8789 8.16406C18.8789 8.05469 18.8828 7.94531 18.8906 7.83594C18.8984 7.72656 18.9023 7.61719 18.9023 7.50781C18.9023 7.34375 18.875 7.21875 18.8203 7.13281C18.7656 7.03906 18.6523 6.99219 18.4805 6.99219C18.2852 6.99219 18.1094 7.05469 17.9531 7.17969C17.7969 7.30469 17.6602 7.46875 17.543 7.67188C17.4258 7.875 17.3242 8.10547 17.2383 8.36328C17.1523 8.62109 17.082 8.88281 17.0273 9.14844C16.9727 9.40625 16.9336 9.65625 16.9102 9.89844C16.8867 10.1406 16.875 10.3477 16.875 10.5195C16.875 10.6602 16.8828 10.8242 16.8984 11.0117C16.9141 11.1914 16.9453 11.3672 16.9922 11.5391C17.0469 11.7031 17.125 11.8438 17.2266 11.9609C17.3281 12.0781 17.4609 12.1367 17.625 12.1367C17.9062 12.1367 18.1328 12.0508 18.3047 11.8789C18.4766 11.6992 18.5938 11.4727 18.6562 11.1992C18.5469 11.1836 18.4375 11.1602 18.3281 11.1289C18.2266 11.0898 18.1289 11.0391 18.0352 10.9766C17.9492 10.9062 17.8789 10.8242 17.8242 10.7305C17.7695 10.6289 17.7422 10.5117 17.7422 10.3789C17.7422 10.1367 17.8242 9.94922 17.9883 9.81641C18.1523 9.67578 18.3438 9.57031 18.5625 9.5C18.7891 9.42969 19.0195 9.38672 19.2539 9.37109C19.4883 9.34766 19.6758 9.33594 19.8164 9.33594C19.918 9.33594 20.0664 9.34375 20.2617 9.35938C20.457 9.375 20.6484 9.41016 20.8359 9.46484C21.0312 9.51172 21.1992 9.58203 21.3398 9.67578C21.4805 9.76953 21.5508 9.89062 21.5508 10.0391C21.5508 10.3359 21.4688 10.5938 21.3047 10.8125C21.1484 11.0234 20.9141 11.1484 20.6016 11.1875ZM23.8242 14.3398C23.4258 14.3398 23.0781 14.2344 22.7812 14.0234C22.4844 13.8125 22.2344 13.543 22.0312 13.2148C21.8281 12.8867 21.6758 12.5234 21.5742 12.125C21.4727 11.7188 21.4219 11.3203 21.4219 10.9297C21.4219 10.5156 21.4727 10.0898 21.5742 9.65234C21.6758 9.20703 21.832 8.80469 22.043 8.44531C22.2539 8.07812 22.5234 7.78125 22.8516 7.55469C23.1797 7.32031 23.5703 7.20312 24.0234 7.20312C24.4609 7.20312 24.832 7.32422 25.1367 7.56641C25.4492 7.80078 25.6992 8.09766 25.8867 8.45703C26.0742 8.80859 26.207 9.19531 26.2852 9.61719C26.3633 10.0391 26.3906 10.4375 26.3672 10.8125C26.3438 11.2266 26.2773 11.6445 26.168 12.0664C26.0664 12.4883 25.9141 12.8672 25.7109 13.2031C25.5078 13.5391 25.25 13.8125 24.9375 14.0234C24.625 14.2344 24.2539 14.3398 23.8242 14.3398ZM23.9414 9.04297C23.8242 9.04297 23.7188 9.10547 23.625 9.23047C23.5391 9.35547 23.4648 9.50781 23.4023 9.6875C23.3477 9.86719 23.3047 10.0586 23.2734 10.2617C23.2422 10.457 23.2266 10.6289 23.2266 10.7773C23.2266 10.9648 23.2422 11.168 23.2734 11.3867C23.3125 11.6055 23.3633 11.8086 23.4258 11.9961C23.4883 12.1758 23.5625 12.3281 23.6484 12.4531C23.7422 12.5703 23.8477 12.6289 23.9648 12.6289C24.0898 12.6289 24.1953 12.5703 24.2812 12.4531C24.375 12.3359 24.4492 12.1875 24.5039 12.0078C24.5586 11.8281 24.5977 11.6328 24.6211 11.4219C24.6445 11.2031 24.6562 11 24.6562 10.8125C24.6562 10.6406 24.6406 10.4531 24.6094 10.25C24.5781 10.0391 24.5312 9.84375 24.4688 9.66406C24.4141 9.48438 24.3398 9.33594 24.2461 9.21875C24.1602 9.10156 24.0586 9.04297 23.9414 9.04297ZM32.0977 10.6484C32.0977 11.0781 32.0547 11.5039 31.9688 11.9258C31.8828 12.3477 31.7383 12.7266 31.5352 13.0625C31.332 13.3906 31.0586 13.6562 30.7148 13.8594C30.3789 14.0625 29.957 14.1641 29.4492 14.1641C28.9492 14.1641 28.5312 14.0664 28.1953 13.8711C27.8594 13.668 27.5898 13.4023 27.3867 13.0742C27.1914 12.7461 27.0508 12.375 26.9648 11.9609C26.8867 11.5469 26.8477 11.125 26.8477 10.6953C26.8477 10.2266 26.9023 9.76172 27.0117 9.30078C27.0352 9.17578 27.0781 9.00391 27.1406 8.78516C27.2109 8.55859 27.2969 8.33984 27.3984 8.12891C27.5078 7.91016 27.6289 7.72266 27.7617 7.56641C27.9023 7.41016 28.0547 7.33203 28.2188 7.33203C28.375 7.33203 28.5 7.375 28.5938 7.46094C28.6875 7.54688 28.7617 7.65625 28.8164 7.78906C28.8711 7.91406 28.9062 8.05078 28.9219 8.19922C28.9375 8.33984 28.9453 8.46875 28.9453 8.58594C28.9453 8.76562 28.9297 8.94141 28.8984 9.11328C28.875 9.28516 28.8477 9.45703 28.8164 9.62891C28.7852 9.86328 28.7539 10.0977 28.7227 10.332C28.6992 10.5664 28.6875 10.8008 28.6875 11.0352C28.6875 11.1523 28.6914 11.2852 28.6992 11.4336C28.7148 11.5742 28.7461 11.7109 28.793 11.8438C28.8398 11.9766 28.9062 12.0898 28.9922 12.1836C29.0781 12.2695 29.1992 12.3125 29.3555 12.3125C29.5586 12.3125 29.7188 12.2578 29.8359 12.1484C29.9609 12.0391 30.0508 11.9023 30.1055 11.7383C30.168 11.5742 30.207 11.3984 30.2227 11.2109C30.2383 11.0234 30.2461 10.8516 30.2461 10.6953C30.2461 10.3516 30.2227 10.0156 30.1758 9.6875C30.1289 9.35156 30.0859 9.01172 30.0469 8.66797C30.0391 8.62891 30.0352 8.57422 30.0352 8.50391C30.0352 8.38672 30.0547 8.26953 30.0938 8.15234C30.1328 8.03516 30.1875 7.92969 30.2578 7.83594C30.3281 7.74219 30.4141 7.66797 30.5156 7.61328C30.6172 7.55078 30.7305 7.51953 30.8555 7.51953C31.0273 7.51953 31.1797 7.58203 31.3125 7.70703C31.4453 7.82422 31.5547 7.98047 31.6406 8.17578C31.7344 8.36328 31.8086 8.57812 31.8633 8.82031C31.9258 9.05469 31.9727 9.28906 32.0039 9.52344C32.043 9.75 32.0664 9.96484 32.0742 10.168C32.0898 10.3711 32.0977 10.5312 32.0977 10.6484ZM36.8789 9.61719C36.7695 9.625 36.6758 9.61719 36.5977 9.59375C36.5195 9.5625 36.4414 9.53125 36.3633 9.5C36.293 9.46875 36.2227 9.44141 36.1523 9.41797C36.082 9.38672 36.0039 9.375 35.918 9.38281C35.7617 9.39062 35.6211 9.43359 35.4961 9.51172C35.3789 9.58984 35.2695 9.6875 35.168 9.80469C35.0742 9.92188 34.9922 10.0547 34.9219 10.2031C34.8516 10.3438 34.7969 10.4844 34.7578 10.625C34.7344 10.7188 34.7148 10.8633 34.6992 11.0586C34.6914 11.2461 34.6875 11.4492 34.6875 11.668C34.6797 11.8945 34.6758 12.1094 34.6758 12.3125C34.6758 12.5156 34.668 12.6758 34.6523 12.793C34.6445 12.918 34.625 13.0664 34.5938 13.2383C34.5625 13.4023 34.5117 13.5586 34.4414 13.707C34.3789 13.8555 34.293 13.9805 34.1836 14.082C34.0742 14.1836 33.9336 14.2344 33.7617 14.2344C33.6289 14.2344 33.5117 14.1953 33.4102 14.1172C33.3164 14.0391 33.2344 13.9375 33.1641 13.8125C33.1016 13.6797 33.0469 13.5273 33 13.3555C32.9609 13.1836 32.9297 13.0078 32.9062 12.8281C32.8828 12.6406 32.8633 12.4531 32.8477 12.2656C32.8398 12.0781 32.832 11.9023 32.8242 11.7383C32.8242 11.5664 32.8242 11.4102 32.8242 11.2695C32.832 11.1289 32.8359 11.0156 32.8359 10.9297C32.8281 10.6562 32.8125 10.3828 32.7891 10.1094C32.7734 9.82812 32.7656 9.55078 32.7656 9.27734C32.7656 9.10547 32.7734 8.91406 32.7891 8.70312C32.8047 8.49219 32.8477 8.29688 32.918 8.11719C32.9883 7.92969 33.0898 7.77344 33.2227 7.64844C33.3633 7.52344 33.5547 7.46094 33.7969 7.46094C33.9297 7.46094 34.043 7.50391 34.1367 7.58984C34.2305 7.67578 34.3047 7.78125 34.3594 7.90625C34.4219 8.03125 34.4688 8.16406 34.5 8.30469C34.5312 8.44531 34.5508 8.57422 34.5586 8.69141C34.7461 8.38672 34.957 8.14062 35.1914 7.95312C35.4258 7.75781 35.7305 7.65234 36.1055 7.63672C36.293 7.62891 36.4766 7.64844 36.6562 7.69531C36.8438 7.73438 37.0117 7.80469 37.1602 7.90625C37.3164 8 37.4414 8.125 37.5352 8.28125C37.6367 8.4375 37.6914 8.62109 37.6992 8.83203C37.7148 9.08203 37.6406 9.27344 37.4766 9.40625C37.3125 9.53906 37.1133 9.60938 36.8789 9.61719ZM42.8555 12.3477C42.8555 12.4883 42.8477 12.6719 42.832 12.8984C42.8242 13.125 42.793 13.3477 42.7383 13.5664C42.6836 13.7773 42.5977 13.9609 42.4805 14.1172C42.3633 14.2734 42.1992 14.3516 41.9883 14.3516C41.6992 14.3516 41.4766 14.2578 41.3203 14.0703C41.1641 13.8828 41.0898 13.6484 41.0977 13.3672C40.8477 13.5859 40.5625 13.7578 40.2422 13.8828C39.9297 14.0078 39.6094 14.0703 39.2812 14.0703C39.0547 14.0703 38.8398 14.0156 38.6367 13.9062C38.4336 13.7969 38.2539 13.6562 38.0977 13.4844C37.9414 13.3125 37.8164 13.1211 37.7227 12.9102C37.6289 12.6914 37.582 12.4766 37.582 12.2656C37.582 11.8906 37.6953 11.5625 37.9219 11.2812C38.1562 11 38.4414 10.7617 38.7773 10.5664C39.1133 10.3633 39.4688 10.2031 39.8438 10.0859C40.2266 9.96875 40.5664 9.89062 40.8633 9.85156C40.8633 9.8125 40.8633 9.77734 40.8633 9.74609C40.8711 9.71484 40.875 9.67969 40.875 9.64062C40.875 9.39844 40.8086 9.20312 40.6758 9.05469C40.543 8.90625 40.3555 8.83203 40.1133 8.83203C39.918 8.83203 39.75 8.86719 39.6094 8.9375C39.4688 9 39.3359 9.07422 39.2109 9.16016C39.0859 9.23828 38.9609 9.3125 38.8359 9.38281C38.7109 9.44531 38.5703 9.47656 38.4141 9.47656C38.2422 9.47656 38.0938 9.42188 37.9688 9.3125C37.8516 9.20312 37.793 9.0625 37.793 8.89062C37.793 8.63281 37.8672 8.39844 38.0156 8.1875C38.1719 7.97656 38.3633 7.80078 38.5898 7.66016C38.8242 7.51172 39.0742 7.39844 39.3398 7.32031C39.6133 7.23438 39.8633 7.19141 40.0898 7.19141C40.3008 7.19141 40.5117 7.21875 40.7227 7.27344C40.9336 7.32031 41.1328 7.39844 41.3203 7.50781C41.5078 7.60938 41.6758 7.73828 41.8242 7.89453C41.9805 8.04297 42.1055 8.21875 42.1992 8.42188C42.3398 8.71094 42.4531 9.01953 42.5391 9.34766C42.625 9.66797 42.6914 10 42.7383 10.3438C42.7852 10.6797 42.8164 11.0195 42.832 11.3633C42.8477 11.6992 42.8555 12.0273 42.8555 12.3477ZM40.9805 11.9727L40.9453 11.1758C40.9297 11.1758 40.9141 11.1758 40.8984 11.1758C40.8828 11.168 40.8672 11.1641 40.8516 11.1641C40.75 11.1641 40.6211 11.1914 40.4648 11.2461C40.3164 11.293 40.1719 11.3633 40.0312 11.457C39.8906 11.543 39.7695 11.6406 39.668 11.75C39.5742 11.8594 39.5273 11.9727 39.5273 12.0898C39.5273 12.1992 39.5664 12.2734 39.6445 12.3125C39.7227 12.3516 39.8125 12.3711 39.9141 12.3711C40.0859 12.3711 40.2695 12.3281 40.4648 12.2422C40.6602 12.1484 40.832 12.0586 40.9805 11.9727ZM48.6094 9.80469C48.4062 10.3438 48.1836 10.9062 47.9414 11.4922C47.6992 12.0781 47.4375 12.625 47.1562 13.1328C46.9844 13.4453 46.793 13.707 46.582 13.918C46.3711 14.1211 46.1289 14.2227 45.8555 14.2227C45.6367 14.2227 45.4219 14.1133 45.2109 13.8945C45.0078 13.668 44.8164 13.4023 44.6367 13.0977C44.4648 12.7852 44.3125 12.4727 44.1797 12.1602C44.0547 11.8398 43.9609 11.5859 43.8984 11.3984C43.8359 11.1875 43.7656 10.9609 43.6875 10.7188C43.6094 10.4766 43.5391 10.2305 43.4766 9.98047C43.4141 9.73047 43.3633 9.48438 43.3242 9.24219C43.2852 8.99219 43.2656 8.75781 43.2656 8.53906C43.2656 8.23438 43.3203 7.98438 43.4297 7.78906C43.5391 7.59375 43.7539 7.49609 44.0742 7.49609C44.1992 7.49609 44.3125 7.53516 44.4141 7.61328C44.5156 7.68359 44.6094 7.78516 44.6953 7.91797C44.7812 8.05078 44.8633 8.20703 44.9414 8.38672C45.0195 8.55859 45.0938 8.75 45.1641 8.96094C45.2344 9.16406 45.3008 9.375 45.3633 9.59375C45.4258 9.8125 45.4883 10.0234 45.5508 10.2266C45.6133 10.4297 45.6758 10.6289 45.7383 10.8242C45.8086 11.0117 45.8984 11.1992 46.0078 11.3867C46.0625 11.2461 46.125 11.0859 46.1953 10.9062C46.2656 10.7266 46.3398 10.5352 46.418 10.332C46.5039 10.1289 46.5938 9.92188 46.6875 9.71094C46.7812 9.49219 46.8828 9.28125 46.9922 9.07812C47.2031 8.65625 47.4258 8.29688 47.6602 8C47.9023 7.70312 48.1406 7.55469 48.375 7.55469C48.5938 7.55469 48.75 7.62109 48.8438 7.75391C48.9375 7.88672 48.9844 8.05859 48.9844 8.26953C48.9844 8.48047 48.9492 8.71875 48.8789 8.98438C48.8086 9.25 48.7188 9.52344 48.6094 9.80469Z" fill="#461901"/>
<path d="M14.5 1.88344C13.5 1.21678 10.8 0.283443 8.00001 1.88344C4.50001 3.88344 8.00001 8.88342 8.00001 18.3834" stroke="#461901" stroke-width="2"/>
<path d="M1 9.38342H12" stroke="#461901" stroke-width="2"/>
<path d="M1 4.88342C2.33333 5.55009 5.4 7.38342 7 9.38342" stroke="#461901" stroke-width="2"/>
<path d="M12 5.38342C11 5.88342 8.7 7.28342 7.5 8.88342" stroke="#461901" stroke-width="2"/>
<g filter="url(#filter0_d_0_1)">
<path d="M8 15C19.1667 17.8333 43.4 21.4 51 13" stroke="#461901" stroke-width="2"/>
</g>
<defs>
<filter id="filter0_d_0_1" x="3.75403" y="12.3291" width="51.9875" height="14.9033" filterUnits="userSpaceOnUse" color-interpolation-filters="sRGB">
<feFlood flood-opacity="0" result="BackgroundImageFix"/>
<feColorMatrix in="SourceAlpha" type="matrix" values="0 0 0 0 0 0 0 0 0 0 0 0 0 0 0 0 0 0 127 0" result="hardAlpha"/>
<feOffset dy="4"/>
<feGaussianBlur stdDeviation="2"/>
<feComposite in2="hardAlpha" operator="out"/>
<feColorMatrix type="matrix" values="0 0 0 0 0 0 0 0 0 0 0 0 0 0 0 0 0 0 0.25 0"/>
<feBlend mode="normal" in2="BackgroundImageFix" result="effect1_dropShadow_0_1"/>
<feBlend mode="normal" in="SourceGraphic" in2="effect1_dropShadow_0_1" result="shape"/>
</filter>
</defs>
</svg>
